<svg width="300" height="300" viewBox="0 0 300 300"  xmlns:svg="http://www.w3.org/2000/svg"  xmlns="http://www.w3.org/2000/svg">
  <g fill="none" fill-rule="evenodd">
    <circle cx="150" cy="150" r="145" stroke="#000" stroke-width="10"/>
    <g fill="#000" fill-rule="nonzero" transform="translate(63 119)">
      <path d="M173.48151,49.9296875 L1.51848958,49.9296875 L1.51848958,0.463020833 L173.48151,0.463020833 L173.48151,49.9296875 Z M6.22890625,45.2229167 L168.771094,45.2229167 L168.771094,5.1734375 L6.22890625,5.1734375 L6.22890625,45.2229167 Z"/>
      <path d="M43.9195312 23.5684896C43.9195312 26.4213542 41.6080729 28.7309896 38.7570312 28.7309896L20.8140625 28.7309896C17.9630208 28.7309896 15.6533854 26.4213542 15.6533854 23.5684896L15.6533854 19.7604167C15.6533854 16.9075521 17.9648437 14.5960938 20.8140625 14.5960938L38.7552083 14.5960938C41.6080729 14.5960938 43.9177083 16.9075521 43.9177083 19.7604167L43.9195312 23.5684896 43.9195312 23.5684896zM39.2091146 19.7604167C39.2091146 19.5088542 39.0049479 19.3083333 38.7552083 19.3083333L20.8158854 19.3083333C20.5661458 19.3083333 20.3619792 19.5088542 20.3619792 19.7604167L20.3619792 23.5684896C20.3619792 23.8200521 20.5643229 24.0205729 20.8158854 24.0205729L38.7552083 24.0205729C39.0049479 24.0205729 39.2091146 23.8200521 39.2091146 23.5684896L39.2091146 19.7604167zM74.5427083 23.5684896C74.5427083 26.4213542 72.23125 28.7309896 69.3820313 28.7309896L51.4390625 28.7309896C48.5880208 28.7309896 46.2747396 26.4213542 46.2747396 23.5684896L46.2747396 19.7604167C46.2747396 16.9075521 48.5880208 14.5960938 51.4390625 14.5960938L69.3820313 14.5960938C72.23125 14.5960938 74.5427083 16.9075521 74.5427083 19.7604167L74.5427083 23.5684896 74.5427083 23.5684896zM69.8322917 19.7604167C69.8322917 19.5088542 69.6299479 19.3083333 69.3783854 19.3083333L51.4408854 19.3083333C51.1893229 19.3083333 50.9869792 19.5088542 50.9869792 19.7604167L50.9869792 23.5684896C50.9869792 23.8200521 51.1893229 24.0205729 51.4408854 24.0205729L69.3783854 24.0205729C69.6299479 24.0205729 69.8322917 23.8200521 69.8322917 23.5684896L69.8322917 19.7604167zM102.579167 7.65625C93.5375 7.65625 86.1820313 15.0117187 86.1820313 24.0479167 86.1820313 33.0877604 93.5375 40.4486979 102.579167 40.4486979 111.620833 40.4486979 118.974479 33.0895833 118.974479 24.0479167 118.976302 15.0098958 111.620833 7.65625 102.579167 7.65625zM102.579167 35.7364583C96.1351563 35.7364583 90.8960938 30.4901042 90.8960938 24.0479167 90.8960938 18.3294271 95.0268229 13.5697917 100.459115 12.5690104L100.459115 26.3794271 105.167708 26.3794271 105.167708 12.6674479C110.36849 13.8486979 114.26224 18.4971354 114.26224 24.0497396 114.264063 30.4901042 109.023177 35.7364583 102.579167 35.7364583zM141.89401 7.65625C132.852344 7.65625 125.495052 15.0117187 125.495052 24.0479167 125.495052 33.0877604 132.852344 40.4486979 141.89401 40.4486979 150.933854 40.4486979 158.2875 33.0895833 158.2875 24.0479167 158.2875 15.0098958 150.933854 7.65625 141.89401 7.65625zM141.89401 35.7364583C135.451823 35.7364583 130.209115 30.4901042 130.209115 24.0479167 130.209115 18.0760417 134.715365 13.1486979 140.503125 12.4578125L140.503125 24.01875 145.213542 24.01875 145.213542 12.8533854C150.040625 14.2880208 153.577083 18.7596354 153.577083 24.0479167 153.577083 30.4901042 148.334375 35.7364583 141.89401 35.7364583zM166.41224 55.4111979C166.41224 58.2585938 164.100781 60.5736979 161.24974 60.5736979L148.017187 60.5736979C145.166146 60.5736979 142.852865 58.2585938 142.852865 55.4111979L142.852865 51.5958333C142.852865 48.7502604 145.166146 46.4388021 148.017187 46.4388021L161.24974 46.4388021C164.100781 46.4388021 166.41224 48.7520833 166.41224 51.5958333L166.41224 55.4111979zM161.7 51.5976563C161.7 51.3552083 161.501302 51.1473958 161.24974 51.1473958L148.020833 51.1473958C147.767448 51.1473958 147.566927 51.3552083 147.566927 51.5976563L147.566927 55.4130208C147.566927 55.6627604 147.767448 55.8669271 148.020833 55.8669271L161.24974 55.8669271C161.501302 55.8669271 161.7 55.6627604 161.7 55.4130208L161.7 51.5976563 161.7 51.5976563zM34.496875 55.4111979C34.496875 58.2585938 32.1854167 60.5736979 29.3325521 60.5736979L16.1018229 60.5736979C13.2526042 60.5736979 10.9411458 58.2585938 10.9411458 55.4111979L10.9411458 51.5958333C10.9411458 48.7502604 13.2526042 46.4388021 16.1018229 46.4388021L29.3325521 46.4388021C32.1854167 46.4388021 34.496875 48.7520833 34.496875 51.5958333L34.496875 55.4111979zM29.7846354 51.5976563C29.7846354 51.3552083 29.5841146 51.1473958 29.3307292 51.1473958L16.1036458 51.1473958C15.8520833 51.1473958 15.6497396 51.3552083 15.6497396 51.5976563L15.6497396 55.4130208C15.6497396 55.6627604 15.8502604 55.8669271 16.1036458 55.8669271L29.3307292 55.8669271C29.5841146 55.8669271 29.7846354 55.6627604 29.7846354 55.4130208L29.7846354 51.5976563z"/>
    </g>
  </g>
</svg>
