<svg width="300" height="300" viewBox="0 0 300 300"  xmlns:svg="http://www.w3.org/2000/svg"  xmlns="http://www.w3.org/2000/svg">
  <g fill="none" fill-rule="evenodd" stroke="#000">
    <circle cx="150" cy="150" r="145" stroke-width="10"/>
    <g stroke-linecap="round" stroke-linejoin="round" transform="translate(86 63)">
      <path stroke-width="2" d="M33.5887097,118.548387 C28.2258065,115.443548 23.1451613,111.774194 18.6290323,106.975806 C-5.08064516,82.1370968 -3.9516129,42.9032258 20.8870968,19.1935484 C45.7258065,-4.51612903 84.9596774,-3.38709677 108.669355,21.4516129 C127.298387,41.2096774 130.685484,70 118.830645,92.8629032"/>
      <g transform="translate(14.113 16.935)">
        <path d="M89.7580645 71.4112903C90.8870968 69.4354839 92.016129 67.1774194 93.1451613 64.6370968 100.201613 47.4193548 95.9677419 28.2258065 84.1129032 15.2419355M9.03225806 71.4112903C11.8548387 76.2096774 15.8064516 80.7258065 20.3225806 84.3951613M76.2096774 8.75C73.3870968 6.77419355 70.2822581 5.08064516 66.8951613 3.66935484 42.9032258-6.20967742 15.5241935 5.64516129 5.64516129 29.6370968 2.25806452 38.1048387 1.41129032 47.1370968 3.10483871 55.6048387"/>
      </g>
      <path stroke-width="2" d="M52.2177419,108.387097 L52.2177419,62.0967742 C52.2177419,62.0967742 51.0887097,50.2419355 63.2258065,50.2419355 C75.3629032,50.2419355 74.516129,62.0967742 74.516129,62.0967742 L74.516129,98.7903226"/>
      <path stroke-width="2" d="M74.516129 90.3225806C74.516129 90.3225806 74.516129 83.266129 82.4193548 83.266129 90.3225806 83.266129 90.3225806 89.1935484 90.3225806 90.3225806 90.3225806 92.8629032 90.3225806 102.177419 90.3225806 102.177419M90.3225806 95.4032258C90.3225806 95.4032258 90.3225806 88.3467742 98.2258065 88.3467742 105.846774 88.3467742 106.129032 94.2741935 106.129032 95.4032258 106.129032 97.9435484 106.129032 107.258065 106.129032 107.258065"/>
      <path stroke-width="2" d="M106.129032,100.766129 C106.129032,100.766129 106.129032,93.7096774 114.032258,93.7096774 C121.653226,93.7096774 121.935484,99.6370968 121.935484,100.766129 C121.935484,103.306452 121.935484,112.620968 121.935484,112.620968 L121.370968,139.435484 C121.370968,158.064516 106.41129,173.024194 87.7822581,173.024194 C58.4274194,172.741935 49.9596774,157.5 40.0806452,134.354839 L32.7419355,115.16129 C32.7419355,115.16129 27.0967742,104.435484 35.2822581,100.201613 C43.4677419,95.9677419 48.5483871,101.612903 52.2177419,108.387097 C55.8870968,115.443548 55.8870968,115.443548 55.8870968,115.443548"/>
    </g>
  </g>
</svg>
