<svg width="300" height="300" viewBox="0 0 300 300" xmlns:svg="http://www.w3.org/2000/svg" xmlns="http://www.w3.org/2000/svg">
  <g>
    <path d="M32.0833333,49.8990625 C26.6342708,49.8990625 22.2184375,54.3163542 22.2184375,59.7639583 C22.2184375,65.2130208 26.635,69.6288542 32.0833333,69.6288542 C37.5316667,69.6288542 41.9482292,65.2122917 41.9482292,59.7639583 C41.9482292,54.315625 37.5323958,49.8990625 32.0833333,49.8990625 Z M32.0833333,20.1009375 C37.5323958,20.1009375 41.9482292,15.684375 41.9482292,10.2360417 C41.9482292,4.78770833 37.5316667,0.371145833 32.0833333,0.371145833 C26.635,0.371145833 22.2184375,4.78770833 22.2184375,10.2360417 C22.2184375,15.6851042 26.6342708,20.1009375 32.0833333,20.1009375 Z M58.4842708,31.3198958 C63.2194792,28.6241667 64.8725,22.6005208 62.1760417,17.8653125 C59.4810417,13.1301042 53.458125,11.4778125 48.7221875,14.1735417 C43.9884375,16.8692708 42.3339583,22.8929167 45.0304167,27.628125 C47.726875,32.3633333 53.7505208,34.015625 58.4842708,31.3198958 Z M5.68239583,38.6801042 C0.947916667,41.3758333 -0.705104167,47.4002083 1.990625,52.1346875 C4.685625,56.8691667 10.71,58.5221875 15.44375,55.8264583 C20.1789583,53.1307292 21.8319792,47.1078125 19.1355208,42.371875 C16.44125,37.6366667 10.416875,35.984375 5.68239583,38.6801042 Z M32.0833333,22.4007292 C25.1248958,22.4007292 19.4840625,28.0408333 19.4840625,35 C19.4840625,41.9591667 25.1248958,47.5992708 32.0833333,47.5992708 C39.0425,47.5992708 44.6826042,41.9591667 44.6826042,35 C44.6826042,28.0408333 39.0425,22.4007292 32.0833333,22.4007292 Z M5.7465625,30.8845833 C10.4358333,33.6583333 16.4864583,32.1052083 19.2594792,27.4152083 C22.0332292,22.7244792 20.479375,16.6753125 15.7901042,13.9022917 C11.1001042,11.1278125 5.05020833,12.6816667 2.2771875,17.3723958 C-0.497291667,22.0616667 1.05583333,28.1108333 5.7465625,30.8845833 Z M58.4201042,39.1146875 C53.7301042,36.3409375 47.6809375,37.8947917 44.9071875,42.5847917 C42.1327083,47.2740625 43.6865625,53.3246875 48.3765625,56.0969792 C53.0658333,58.8714583 59.1164583,57.3183333 61.8894792,52.6276042 C64.6639583,47.9376042 63.1101042,41.8884375 58.4201042,39.1146875 Z" transform="translate(223 223)"/>
    <g transform="translate(50 50)">
      <path d="M100,199.666667 C45,199.666667 0.666666667,155 0.666666667,100.333333 C0.666666667,45.3333333 45,0.666666667 100,0.666666667 C155,0.666666667 199.333333,45.3333333 199.333333,100 C199.333333,155 155,199.666667 100,199.666667 Z M100,10.6666667 C50.6666667,10.6666667 10.6666667,50.6666667 10.6666667,100 C10.6666667,149.333333 50.6666667,189.333333 100,189.333333 C149.333333,189.333333 189.333333,149.333333 189.333333,100 C189.333333,50.6666667 149.333333,10.6666667 100,10.6666667 Z"/>
      <path d="M50.6666667 54.6666667C47.3333333 51.3333333 42.3333333 51.6666667 39.3333333 55.6666667 31 69.6666667 32.3333333 88.6666667 44.3333333 101 56.6666667 113.333333 75 115 89.6666667 106 93.6666667 103.333333 94 98 90.6666667 94.6666667 81.3333333 85.3333333 60.6666667 64.6666667 50.6666667 54.6666667zM149.333333 145.666667C152.666667 149 157.666667 148.666667 160.666667 144.666667 169 130.666667 167.666667 111.666667 155.666667 99.3333333 143.333333 87 125 85.3333333 110.333333 94.3333333 106.333333 97 105.666667 102 109.333333 105.666667 118.666667 115 139.333333 135.666667 149.333333 145.666667zM146 50.6666667C149.333333 47.3333333 149 42.3333333 145 39.3333333 131 31 112 32.3333333 99.6666667 44.3333333 87.3333333 56.6666667 85.6666667 75 94.6666667 89.6666667 97.3333333 93.6666667 102.666667 94 106 90.6666667 114.666667 82 136 60.6666667 146 50.6666667zM54.6666667 150C51.3333333 153.333333 51.6666667 158.333333 55.6666667 161.333333 69.6666667 169.666667 88.6666667 168.333333 101 156.333333 113.333333 144 115 125.666667 106 111 103.333333 107 98 106.666667 94.6666667 110 86 118.666667 64.6666667 140 54.6666667 150z"/>
    </g>
  </g>
</svg>
