<svg width="300" height="300" viewBox="0 0 300 300"  xmlns:svg="http://www.w3.org/2000/svg"  xmlns="http://www.w3.org/2000/svg">
  <g fill="none" fill-rule="evenodd">
    <circle cx="150" cy="150" r="145" stroke="#000" stroke-width="10"/>
    <g fill="#000" fill-rule="nonzero" transform="translate(96 63)">
      <path d="M107.086538,54.9230769 C107.095892,26.7866517 85.210516,3.50037795 57.127582,1.76621355 C29.0446479,0.0320491522 4.46054538,20.4487611 1.00809315,48.3725697 C-2.44435908,76.2963782 16.4268912,102.085836 44.0865385,107.24359 L44.0865385,156.24359 L37.3557692,156.24359 C28.860664,156.255946 21.9771001,163.13951 21.9647436,171.634615 C21.9647436,172.563941 22.7181106,173.317308 23.6474359,173.317308 L84.0448718,173.317308 C84.4911495,173.317308 84.9191489,173.140025 85.2347149,172.824459 C85.550281,172.508893 85.7275641,172.080893 85.7275641,171.634615 C85.7152076,163.13951 78.8316437,156.255946 70.3365385,156.24359 L63.6057692,156.24359 L63.6057692,107.24359 C88.7902719,102.520065 107.051163,80.5466913 107.086538,54.9230769 L107.086538,54.9230769 Z M3.88141026,54.9230769 C3.87947887,28.4364192 24.5813852,6.56784661 51.0283923,5.11910328 C77.4753995,3.67035996 100.442149,23.1468027 103.333378,49.4751873 C106.224607,75.803572 88.0317855,99.7999182 61.900641,104.125 L61.6538462,104.125 C59.7667772,104.435453 57.8645089,104.645152 55.9551282,104.753205 L53.8461538,104.753205 L51.7371795,104.753205 C49.8277988,104.645152 47.9255305,104.435453 46.0384615,104.125 L45.7916667,104.125 C21.6975378,100.153893 4.00810439,79.3422368 3.97115385,54.9230769 L3.88141026,54.9230769 Z M25.3525641,169.951923 C25.6267286,168.100756 26.3339335,166.34043 27.4166667,164.814103 L80.1858974,164.814103 C81.2686306,166.34043 81.9758355,168.100756 82.25,169.951923 L25.3525641,169.951923 Z M76.7083333,161.538462 L30.9839744,161.538462 C32.8914664,160.335607 35.1006897,159.697733 37.3557692,159.698718 L70.3365385,159.698718 C72.591618,159.697733 74.8008413,160.335607 76.7083333,161.538462 Z M60.2403846,156.333333 L47.4519231,156.333333 L47.4519231,107.692308 C49.4400042,107.931476 51.4399476,108.058813 53.4423077,108.073718 L54.2275641,108.073718 C56.2374118,108.059655 58.2448692,107.932316 60.2403846,107.692308 L60.2403846,156.333333 Z"/>
      <path d="M53.8461538,69.2820513 L68.0032051,82.25 C70.7301754,84.7615556 74.302288,86.1551601 78.0096154,86.1538462 C78.7609096,86.1500848 79.5108683,86.0900881 80.2532051,85.974359 C84.7032701,85.2993921 88.6023225,82.6311845 90.8429487,78.7275641 L92.8846154,75.2051282 C95.133689,71.3095002 95.4930753,66.6036187 93.8616491,62.4116385 C92.2302229,58.2196583 88.7843313,54.9947069 84.4935897,53.6442308 L66.1858974,47.8782051 L70.3589744,29.1666667 C71.3010069,24.7870993 70.2128847,20.216398 67.3985059,16.7310991 C64.5841271,13.2458003 60.3451205,11.2194381 55.8653846,11.2179487 L51.8044872,11.2179487 C47.3247513,11.2194381 43.0857447,13.2458003 40.2713659,16.7310991 C37.4569871,20.216398 36.3688649,24.7870993 37.3108974,29.1666667 L41.4615385,47.900641 L23.1762821,53.6217949 C18.8855405,54.972271 15.4396489,58.1972224 13.8082227,62.3892026 C12.1767965,66.5811828 12.5361828,71.2870643 14.7852564,75.1826923 L16.8269231,78.7051282 C19.0747799,82.6000968 22.9685863,85.2646856 27.4132119,85.9494807 C31.8578375,86.6342758 36.3731065,85.2652953 39.6891026,82.2275641 L53.8461538,69.2820513 Z M27.9326923,82.7435897 C24.4906993,82.2199926 21.4755679,80.1548341 19.7435897,77.1346154 L17.7019231,73.6121795 C15.9624592,70.600833 15.6838605,66.9627184 16.9445266,63.7216287 C18.2051927,60.4805389 20.8688399,57.986851 24.1858974,56.9423077 L43.974359,50.7051282 C44.8119235,50.4456534 45.3098462,49.5864926 45.1185897,48.7307692 L40.6314103,28.5384615 C39.8748593,25.1388086 40.7047004,21.579579 42.8867791,18.8650731 C45.0688578,16.1505672 48.3665523,14.5751425 51.849359,14.5833333 L55.9102564,14.5833333 C59.3930631,14.5751425 62.6907576,16.1505672 64.8728363,18.8650731 C67.0549149,21.579579 67.8847561,25.1388086 67.1282051,28.5384615 L62.6410256,48.7307692 C62.4497692,49.5864926 62.9476919,50.4456534 63.7852564,50.7051282 L83.5737179,56.9423077 C86.8907755,57.986851 89.5544226,60.4805389 90.8150888,63.7216287 C92.0757549,66.9627184 91.7971561,70.600833 90.0576923,73.6121795 L88.0160256,77.1346154 C86.2770286,80.1462997 83.2650123,82.2058497 79.8276071,82.7336746 C76.390202,83.2614995 72.8990207,82.2005369 70.3365385,79.849359 L54.9903846,65.7371795 C54.3516331,65.1658628 53.3855463,65.1658628 52.7467949,65.7371795 L37.4455128,79.7371795 C34.8830573,82.1042231 31.3792464,83.170241 27.9326923,82.6314103 L27.9326923,82.7435897 Z"/>
      <path d="M61.6089744 54.9903846C61.5718776 50.7120553 58.0800898 47.2703232 53.8016708 47.2950009 49.5232518 47.3196787 46.0713985 50.8014613 46.083657 55.0799339 46.0959155 59.3584065 49.5676637 62.820352 53.8461538 62.8205128 55.9166969 62.8205907 57.9014698 61.9934914 59.3592315 60.5230903 60.8169931 59.0526891 61.626927 57.0608498 61.6089744 54.9903846L61.6089744 54.9903846zM49.4487179 54.9903846C49.4487179 52.5121838 51.4576966 50.5032051 53.9358974 50.5032051 56.4140982 50.5032051 58.4230769 52.5121838 58.4230769 54.9903846 58.4230769 57.4685854 56.4140982 59.4775641 53.9358974 59.4775641 52.7303511 59.5016799 51.5658278 59.0395925 50.7048077 58.1954551 49.8437875 57.3513178 49.3587332 56.1961721 49.3589744 54.9903846L49.4487179 54.9903846zM53.8461538 109.935897C50.7731849 109.935897 48.2820513 112.427031 48.2820513 115.5 48.2820513 118.572969 50.7731849 121.064103 53.8461538 121.064103 56.9191228 121.064103 59.4102564 118.572969 59.4102564 115.5 59.4102564 114.024308 58.8240401 112.609057 57.7805685 111.565585 56.7370969 110.522114 55.3218456 109.935897 53.8461538 109.935897L53.8461538 109.935897zM53.8461538 117.676282C52.6070534 117.676282 51.6025641 116.671793 51.6025641 115.432692 51.6025641 114.193592 52.6070534 113.189103 53.8461538 113.189103 55.0852542 113.189103 56.0897436 114.193592 56.0897436 115.432692 56.1141805 116.043121 55.8886355 116.637119 55.4652031 117.077488 55.0417708 117.517858 54.4570714 117.766515 53.8461538 117.766026L53.8461538 117.676282zM53.8461538 122.432692C51.5855744 122.433152 49.549965 123.801261 48.6957361 125.894229 47.8415072 127.987196 48.3384723 130.388957 49.9531374 131.971069 51.5678025 133.55318 53.9791858 134.001131 56.0543232 133.104457 58.1294607 132.207784 59.4558326 130.144735 59.4102564 127.884615 59.3491741 124.855543 56.8758418 122.432076 53.8461538 122.432692L53.8461538 122.432692zM53.8461538 130.128205C52.6070534 130.128205 51.6025641 129.123716 51.6025641 127.884615 51.6025641 126.645515 52.6070534 125.641026 53.8461538 125.641026 55.0852542 125.641026 56.0897436 126.645515 56.0897436 127.884615 56.0897436 129.123716 55.0852542 130.128205 53.8461538 130.128205z"/>
    </g>
  </g>
</svg>
