<svg width="300" height="300" viewBox="0 0 300 300"  xmlns:svg="http://www.w3.org/2000/svg"  xmlns="http://www.w3.org/2000/svg">
  <g fill="none" fill-rule="evenodd">
    <circle cx="150" cy="150" r="145" stroke="#000" stroke-width="10"/>
    <g fill="#000" fill-rule="nonzero" transform="translate(83 63)">
      <path d="M126.121154,174.455769 L9.51538462,174.455769 L9.27692308,173.303846 C8.44615385,169.259615 -10.8326923,74.0615385 9.64807692,52.6615385 C19.5730769,42.2923077 43.3961538,35.5923077 70.3442308,35.5923077 C96.9096154,35.5923077 117.740385,42.0173077 126.063462,52.7769231 C144.2,76.2269231 127.078846,169.326923 126.342308,173.278846 L126.121154,174.455769 Z M11.875,171.571154 L123.717308,171.571154 C125.676923,160.532692 140.076923,75.6115385 123.780769,54.5423077 C116.119231,44.6326923 95.6403846,38.4769231 70.3442308,38.4769231 C44.55,38.4769231 20.9961538,44.9788462 11.7326923,54.6576923 C-6.55384615,73.7634615 9.71153846,160.523077 11.875,171.571154 Z M67.8076923,157.532692 C59.5942308,157.532692 51.6423077,155.132692 44.8076923,150.592308 C40.2846154,147.588462 36.4519231,143.805769 33.4057692,139.342308 L33.4019231,139.340385 L33.1903846,139.023077 C30.8326923,135.503846 29.0307692,131.613462 27.8326923,127.461538 L27.7769231,127.259615 C26.7134615,123.513462 26.175,119.690385 26.175,115.898077 C26.175,112.038462 26.7326923,108.148077 27.8326923,104.334615 C29.0153846,100.248077 30.7807692,96.4153846 33.0807692,92.9384615 L33.2692308,92.6538462 C36.3326923,88.1076923 40.2134615,84.2557692 44.8076923,81.2038462 C51.6442308,76.6615385 59.5980769,74.2615385 67.8076923,74.2615385 C76.0192308,74.2615385 83.9711538,76.6615385 90.8096154,81.2038462 C95.4384615,84.2807692 99.3461538,88.1692308 102.421154,92.7634615 C104.782692,96.2923077 106.584615,100.184615 107.782692,104.334615 C108.884615,108.144231 109.442308,112.036538 109.442308,115.898077 C109.442308,119.759615 108.884615,123.65 107.782692,127.463462 C106.582692,131.617308 104.778846,135.511538 102.421154,139.032692 C99.3423077,143.630769 95.4365385,147.519231 90.8096154,150.594231 C83.975,155.132692 76.0211538,157.532692 67.8076923,157.532692 Z M35.6538462,137.519231 C38.5096154,141.757692 42.125,145.346154 46.4038462,148.188462 C52.7634615,152.415385 60.1653846,154.648077 67.8076923,154.648077 C75.4519231,154.648077 82.8538462,152.415385 89.2134615,148.188462 C93.5211538,145.328846 97.1596154,141.705769 100.025,137.426923 C102.217308,134.151923 103.894231,130.530769 105.011538,126.661538 C106.038462,123.107692 106.559615,119.488462 106.559615,115.896154 C106.559615,112.303846 106.038462,108.684615 105.011538,105.132692 C103.898077,101.269231 102.219231,97.6461538 100.025,94.3653846 C97.1615385,90.0884615 93.5230769,86.4692308 89.2134615,83.6038462 C82.85,79.3788462 75.45,77.1442308 67.8076923,77.1442308 C60.1673077,77.1442308 52.7673077,79.3788462 46.4038462,83.6038462 C42.1461538,86.4346154 38.5442308,90.0038462 35.6961538,94.2115385 L35.5865385,94.3769231 C33.3980769,97.65 31.7211538,101.267308 30.6038462,105.132692 C29.5788462,108.686538 29.0576923,112.305769 29.0576923,115.896154 C29.0576923,119.486538 29.5788462,123.105769 30.6038462,126.655769 L30.6596154,126.855769 C31.7403846,130.525 33.325,133.969231 35.3769231,137.103846 L35.4865385,137.157692 L35.6538462,137.519231 Z M44.4903846,70.25 C39.1634615,70.25 34.8307692,65.925 34.8307692,60.6096154 C34.8307692,55.2942308 39.1634615,50.9692308 44.4903846,50.9692308 C49.8192308,50.9692308 54.1519231,55.2942308 54.1519231,60.6096154 C54.1519231,65.925 49.8173077,70.25 44.4903846,70.25 Z M44.4903846,53.8557692 C40.7538462,53.8557692 37.7153846,56.8865385 37.7153846,60.6115385 C37.7153846,64.3365385 40.7557692,67.3673077 44.4903846,67.3673077 C48.2269231,67.3673077 51.2673077,64.3365385 51.2673077,60.6115385 C51.2673077,56.8865385 48.2269231,53.8557692 44.4903846,53.8557692 Z M29.7307692,70.1230769 L21.2692308,70.1230769 C19.3769231,70.1230769 17.8384615,68.5846154 17.8384615,66.6923077 L17.8384615,54.5288462 C17.8384615,52.6365385 19.3769231,51.0980769 21.2692308,51.0980769 L29.7307692,51.0980769 C31.6230769,51.0980769 33.1615385,52.6365385 33.1615385,54.5288462 L33.1615385,66.6923077 C33.1615385,68.5846154 31.6230769,70.1230769 29.7307692,70.1230769 Z M21.2692308,53.9807692 C20.9673077,53.9807692 20.7230769,54.225 20.7230769,54.5269231 L20.7230769,66.6903846 C20.7230769,66.9923077 20.9673077,67.2365385 21.2692308,67.2365385 L29.7307692,67.2365385 C30.0326923,67.2365385 30.2769231,66.9923077 30.2769231,66.6903846 L30.2769231,54.5269231 C30.2769231,54.225 30.0326923,53.9807692 29.7307692,53.9807692 L21.2692308,53.9807692 Z"/>
      <path d="M102.738462 124.359615C103.253846 122.253846 103.576923 120.130769 103.705769 118.013462L31.9115385 118.013462C32.0403846 120.132692 32.3615385 122.255769 32.8769231 124.359615L102.738462 124.359615zM98.3134615 134.936538C99.5557692 132.942308 100.601923 130.817308 101.436538 128.590385L34.1769231 128.590385C35.0134615 130.821154 36.0596154 132.944231 37.3 134.936538L98.3134615 134.936538zM47.425 145.513462L88.1903846 145.513462C90.8211538 143.7 93.175 141.575 95.2192308 139.167308L40.3961538 139.167308C42.4403846 141.575 44.7942308 143.7 47.425 145.513462zM103.705769 113.782692C103.576923 111.663462 103.253846 109.540385 102.738462 107.436538L32.8769231 107.436538C32.3634615 109.540385 32.0403846 111.663462 31.9115385 113.782692L103.705769 113.782692zM37.3019231 96.8596154C36.0576923 98.8519231 35.0134615 100.976923 34.1769231 103.205769L101.436538 103.205769C100.601923 100.976923 99.5557692 98.8519231 98.3134615 96.8596154L37.3019231 96.8596154zM88.1903846 86.2826923L47.425 86.2826923C44.7942308 88.0942308 42.4403846 90.2192308 40.3961538 92.6288462L95.2211538 92.6288462C93.175 90.2192308 90.8230769 88.0961538 88.1903846 86.2826923zM44.4903846 65.5384615C41.7615385 65.5384615 39.5403846 63.3288462 39.5403846 60.6115385 39.5403846 57.8942308 41.7615385 55.6846154 44.4903846 55.6846154 47.2211538 55.6846154 49.4423077 57.8942308 49.4423077 60.6115385 49.4423077 63.3288462 47.2211538 65.5384615 44.4903846 65.5384615zM44.4903846 57.6057692C42.8211538 57.6057692 41.4634615 58.9538462 41.4634615 60.6096154 41.4634615 62.2653846 42.8211538 63.6134615 44.4903846 63.6134615 46.1615385 63.6134615 47.5192308 62.2653846 47.5192308 60.6096154 47.5192308 58.9538462 46.1596154 57.6057692 44.4903846 57.6057692zM28.7038462 65.6653846L22.2980769 65.6653846 22.2980769 55.5576923 28.7038462 55.5576923 28.7038462 65.6653846zM24.2211538 63.7423077L26.7807692 63.7423077 26.7807692 57.4807692 24.2211538 57.4807692 24.2211538 63.7423077zM25.9211538 32.3538462L25.9211538 32.3538462C25 32.3538462 24.2557692 31.8 24.2557692 31.1173077L24.2596154 23.8038462C24.1480769 22.3942308 25.4057692 21.2211538 26.5096154 20.1865385 27.2519231 19.4923077 28.0173077 18.7769231 28.0634615 18.2230769 28.1115385 17.6615385 27.3019231 16.8884615 26.5173077 16.1403846 25.5153846 15.1769231 24.375 14.0884615 24.2634615 12.7634615 24.1384615 11.275 25.3846154 10.0326923 26.4807692 8.94038462 27.2384615 8.18461538 28.025 7.40384615 28.0615385 6.81153846 28.125 5.81538462 26.0615385 3.50961538 24.65 2.26153846 24.0576923 1.74038462 24.15.959615385 24.8538462.523076923 25.5576923.0826923077 26.6076923.151923077 27.2019231.675 27.9269231 1.31538462 31.5403846 4.625 31.3903846 6.92692308 31.3038462 8.275 30.1615385 9.41153846 29.1538462 10.4153846 28.3615385 11.2057692 27.5384615 12.0230769 27.5903846 12.6115385 27.6384615 13.1788462 28.4096154 13.9153846 29.1538462 14.6307692 30.2596154 15.6884615 31.5096154 16.8865385 31.3884615 18.3730769 31.2807692 19.7 30.1326923 20.7730769 29.1192308 21.7192308 28.3480769 22.4423077 27.5480769 23.1923077 27.5884615 23.7326923L27.5846154 31.1192308C27.5865385 31.8019231 26.8403846 32.3538462 25.9211538 32.3538462zM45.7923077 32.1826923L45.7923077 32.1826923C44.8711538 32.1826923 44.1269231 31.6307692 44.1269231 30.9461538L44.1307692 23.6326923C44.0192308 22.225 45.275 21.05 46.3807692 20.0153846 47.1230769 19.3230769 47.8903846 18.6076923 47.9346154 18.0519231 47.9788462 17.4923077 47.1730769 16.7173077 46.3884615 15.9673077 45.3865385 15.0076923 44.2480769 13.9173077 44.1326923 12.5923077 44.0096154 11.1038462 45.2519231 9.86346154 46.35 8.76923077 47.1096154 8.01346154 47.8942308 7.23269231 47.9326923 6.63846154 47.9942308 5.65 45.9346154 3.34038462 44.5211538 2.09038462 43.9288462 1.56923077 44.0230769.790384615 44.725.353846154 45.4288462-.0865384615 46.4788462-.0173076923 47.0711538.505769231 47.8 1.14423077 51.4096154 4.45576923 51.2615385 6.75961538 51.175 8.10384615 50.0307692 9.24230769 49.025 10.2461538 48.2307692 11.0346154 47.4115385 11.8538462 47.4615385 12.4403846 47.5057692 13.0076923 48.2807692 13.7461538 49.0230769 14.4596154 50.1288462 15.5192308 51.3807692 16.7173077 51.2615385 18.2019231 51.1519231 19.5288462 50.0057692 20.6019231 48.9903846 21.55 48.2173077 22.2730769 47.4173077 23.0211538 47.4596154 23.5634615L47.4576923 30.95C47.4576923 31.6307692 46.7115385 32.1826923 45.7923077 32.1826923zM66.0865385 32.1826923L66.0865385 32.1826923C65.1653846 32.1826923 64.4211538 31.6307692 64.4211538 30.9461538L64.425 23.6326923C64.3134615 22.225 65.5692308 21.05 66.675 20.0153846 67.4173077 19.3230769 68.1865385 18.6076923 68.2307692 18.0519231 68.275 17.4923077 67.4692308 16.7173077 66.6846154 15.9673077 65.6807692 15.0076923 64.5423077 13.9173077 64.4288462 12.5923077 64.3057692 11.1038462 65.5480769 9.86346154 66.6461538 8.76923077 67.4057692 8.01346154 68.1903846 7.23269231 68.2288462 6.63846154 68.2903846 5.65 66.2307692 3.34038462 64.8153846 2.09038462 64.2230769 1.56923077 64.3173077.790384615 65.0192308.353846154 65.7230769-.0865384615 66.7730769-.0173076923 67.3673077.505769231 68.0942308 1.14423077 71.7057692 4.45576923 71.5557692 6.75961538 71.4673077 8.10384615 70.325 9.24230769 69.3192308 10.2461538 68.5269231 11.0346154 67.7057692 11.8538462 67.7576923 12.4403846 67.8019231 13.0076923 68.575 13.7461538 69.3192308 14.4596154 70.425 15.5192308 71.6769231 16.7173077 71.5576923 18.2019231 71.4480769 19.5288462 70.3038462 20.6019231 69.2884615 21.55 68.5134615 22.2730769 67.7153846 23.0211538 67.7576923 23.5634615L67.7557692 30.95C67.7538462 31.6307692 67.0076923 32.1826923 66.0865385 32.1826923zM86.0788462 32.3538462L86.0788462 32.3538462C85.1576923 32.3538462 84.4134615 31.8019231 84.4134615 31.1173077L84.4173077 23.8038462C84.3038462 22.3942308 85.5615385 21.2211538 86.6673077 20.1865385 87.4096154 19.4923077 88.1769231 18.7769231 88.2211538 18.2230769 88.2673077 17.6615385 87.4596154 16.8884615 86.6769231 16.1384615 85.6730769 15.1769231 84.5346154 14.0884615 84.4192308 12.7634615 84.2961538 11.275 85.5403846 10.0326923 86.6384615 8.94038462 87.3961538 8.18461538 88.1807692 7.40384615 88.2192308 6.80769231 88.2807692 5.82115385 86.2230769 3.51153846 84.8076923 2.26153846 84.2134615 1.74038462 84.3076923.959615385 85.0115385.523076923 85.7153846.0826923077 86.7634615.151923077 87.3596154.675 88.0846154 1.31538462 91.6980769 4.625 91.5461538 6.92884615 91.4596154 8.275 90.3173077 9.41153846 89.3115385 10.4153846 88.5173077 11.2057692 87.6980769 12.0230769 87.7480769 12.6115385 87.7942308 13.1788462 88.5673077 13.9153846 89.3096154 14.6307692 90.4153846 15.6884615 91.6673077 16.8865385 91.5461538 18.3730769 91.4384615 19.7 90.2923077 20.7730769 89.2788462 21.7192308 88.5038462 22.4423077 87.7038462 23.1923077 87.7461538 23.7326923L87.7442308 31.1192308C87.7442308 31.8019231 86.9961538 32.3538462 86.0788462 32.3538462zM105.884615 32.3538462L105.884615 32.3538462C104.965385 32.3538462 104.219231 31.8019231 104.219231 31.1173077L104.223077 23.8038462C104.111538 22.3942308 105.367308 21.2211538 106.473077 20.1865385 107.215385 19.4923077 107.982692 18.7769231 108.026923 18.2230769 108.071154 17.6615385 107.265385 16.8884615 106.482692 16.1384615 105.478846 15.1769231 104.340385 14.0884615 104.226923 12.7634615 104.103846 11.275 105.344231 10.0326923 106.446154 8.94038462 107.201923 8.18461538 107.986538 7.40384615 108.025 6.80769231 108.088462 5.82115385 106.026923 3.51153846 104.613462 2.26153846 104.021154 1.74230769 104.115385.961538462 104.817308.523076923 105.519231.0826923077 106.573077.151923077 107.163462.675 107.892308 1.31538462 111.501923 4.625 111.353846 6.92884615 111.267308 8.275 110.123077 9.41153846 109.117308 10.4153846 108.323077 11.2057692 107.503846 12.0230769 107.553846 12.6115385 107.598077 13.1788462 108.373077 13.9153846 109.115385 14.6307692 110.221154 15.6884615 111.475 16.8865385 111.353846 18.3730769 111.244231 19.7 110.098077 20.7730769 109.084615 21.7192308 108.311538 22.4423077 107.509615 23.1923077 107.551923 23.7326923L107.55 31.1192308C107.55 31.8019231 106.803846 32.3538462 105.884615 32.3538462z"/>
    </g>
  </g>
</svg>
