<svg width="300" height="300" viewBox="0 0 300 300"  xmlns:svg="http://www.w3.org/2000/svg"  xmlns="http://www.w3.org/2000/svg">
  <g fill="none" fill-rule="evenodd">
    <circle cx="150" cy="150" r="145" stroke="#000" stroke-width="10"/>
    <g transform="translate(92 63)">
      <path d="M58.3333333 5.89555556C30.4033333 5.89555556 7.68055556 28.6183333 7.68055556 56.5483333 7.68055556 67.2972222 11.0522222 77.5969444 17.4338889 86.3391667 17.6925 86.6930556 17.8694444 87.0975 17.9491667 87.5252778L35.0563889 131.360833 55.4341667 131.360833 55.4341667 120.143333 42.2916667 120.143333C40.6661111 120.143333 39.3438889 118.821111 39.3438889 117.195556 39.3438889 115.57 40.6661111 114.249722 42.2916667 114.249722L55.4341667 114.249722 55.4341667 105.703889 42.2916667 105.703889C40.6661111 105.703889 39.3438889 104.383611 39.3438889 102.758056 39.3438889 101.1325 40.6661111 99.8102778 42.2916667 99.8102778L55.4341667 99.8102778 55.4341667 94.1344444 35.1477778 58.9944444C34.6227778 58.0863889 34.6227778 56.9566667 35.1477778 56.0486111 35.6727778 55.1386111 36.6508333 54.5727778 37.7008333 54.5727778L79.0591667 54.5727778C80.1052778 54.5727778 81.0813889 55.1347222 81.6102778 56.0447222 82.1333333 56.9586111 82.1333333 58.0844444 81.6141667 58.9905556L61.3277778 94.1325 61.3277778 99.8083333 74.375 99.8083333C76.0005556 99.8083333 77.3227778 101.130556 77.3227778 102.756111 77.3227778 104.381667 76.0005556 105.701944 74.375 105.701944L61.3277778 105.701944 61.3277778 114.247778 74.375 114.247778C76.0005556 114.247778 77.3227778 115.568056 77.3227778 117.193611 77.3227778 118.819167 76.0005556 120.141389 74.375 120.141389L61.3277778 120.141389 61.3277778 131.358889 81.6102778 131.358889 98.7311111 87.4922222C98.8088889 87.0741667 98.9780556 86.6813889 99.2288889 86.3391667 103.881944 79.9633333 106.915278 72.7552778 108.227778 65.1544444 108.490278 63.6338889 108.704167 62.1036111 108.826667 60.5558333 108.931667 59.2297222 108.984167 57.8919444 108.984167 56.5502778 108.986111 28.6183333 86.2633333 5.89555556 58.3333333 5.89555556zM75.5805556 137.254444L41.0861111 137.254444 41.0861111 169.106389 75.5805556 169.106389 75.5805556 159.728333 55.335 163.381944C55.2241667 163.403333 54.9227778 163.428611 54.81 163.428611 53.3847222 163.428611 52.1655556 162.409722 51.9108333 161.005833 51.6230556 159.4075 52.6886111 157.871389 54.2830556 157.579722L75.5805556 153.7375 75.5805556 146.891111 55.335 150.544722C55.2241667 150.566111 54.9227778 150.591389 54.81 150.591389 53.3866667 150.591389 52.1675 149.5725 51.9108333 148.1725 51.6230556 146.568333 52.6905556 145.032222 54.2888889 144.7425L75.5825 140.898333 75.5825 137.254444 75.5805556 137.254444z"/>
      <polygon points="73.953 60.47 42.807 60.47 58.38 87.446"/>
      <path fill="#000" fill-rule="nonzero" d="M58.3333333,0 C27.1541667,0 1.78694444,25.3672222 1.78694444,56.5483333 C1.78694444,68.3530556 5.43083333,79.6872222 12.3297222,89.3394444 L30.2963889,135.372222 C30.7319444,136.498056 31.8344444,137.254444 33.0438889,137.254444 L35.1925,137.254444 L35.1925,172.054167 C35.1925,173.679722 36.5147222,175 38.1402778,175 L78.5322222,175 C80.1577778,175 81.48,173.679722 81.48,172.054167 L81.48,137.254444 L83.6286111,137.254444 C84.8536111,137.254444 85.9327778,136.5175 86.3741667,135.378056 L104.342778,89.3316667 C111.239722,79.6775 114.883611,68.3491667 114.883611,56.5483333 C114.879722,25.3672222 89.5125,0 58.3333333,0 Z M108.229722,65.1544444 C106.917222,72.7552778 103.883889,79.9633333 99.2308333,86.3391667 C98.98,86.6813889 98.8108333,87.0741667 98.7330556,87.4922222 L81.6122222,131.358889 L61.3277778,131.358889 L61.3277778,120.141389 L74.375,120.141389 C76.0005556,120.141389 77.3227778,118.819167 77.3227778,117.193611 C77.3227778,115.568056 76.0005556,114.247778 74.375,114.247778 L61.3277778,114.247778 L61.3277778,105.701944 L74.375,105.701944 C76.0005556,105.701944 77.3227778,104.381667 77.3227778,102.756111 C77.3227778,101.130556 76.0005556,99.8083333 74.375,99.8083333 L61.3277778,99.8083333 L61.3277778,94.1325 L81.6141667,58.9925 C82.1333333,58.0863889 82.1333333,56.9605556 81.6102778,56.0466667 C81.0833333,55.1386111 80.1052778,54.5747222 79.0591667,54.5747222 L37.7008333,54.5747222 C36.6508333,54.5747222 35.6727778,55.1386111 35.1477778,56.0505556 C34.6227778,56.9586111 34.6227778,58.0883333 35.1477778,58.9963889 L55.4322222,94.1325 L55.4322222,99.8083333 L42.2897222,99.8083333 C40.6641667,99.8083333 39.3419444,101.130556 39.3419444,102.756111 C39.3419444,104.381667 40.6641667,105.701944 42.2897222,105.701944 L55.4322222,105.701944 L55.4322222,114.247778 L42.2897222,114.247778 C40.6641667,114.247778 39.3419444,115.568056 39.3419444,117.193611 C39.3419444,118.819167 40.6641667,120.141389 42.2897222,120.141389 L55.4322222,120.141389 L55.4322222,131.358889 L35.0544444,131.358889 L17.9472222,87.5233333 C17.8655556,87.0955556 17.6905556,86.6911111 17.4319444,86.3372222 C11.0502778,77.595 7.67861111,67.2952778 7.67861111,56.5463889 C7.67861111,28.6163889 30.4013889,5.89361111 58.3313889,5.89361111 C86.2613889,5.89361111 108.984167,28.6163889 108.984167,56.5463889 C108.984167,57.89 108.931667,59.2258333 108.826667,60.5519444 C108.706111,62.1036111 108.492222,63.6338889 108.229722,65.1544444 Z M51.9108333,148.1725 C52.1675,149.5725 53.3866667,150.591389 54.81,150.591389 C54.9227778,150.591389 55.2241667,150.566111 55.335,150.544722 L75.5805556,146.891111 L75.5805556,153.7375 L54.2830556,157.579722 C52.6886111,157.871389 51.6230556,159.4075 51.9108333,161.005833 C52.1655556,162.409722 53.3866667,163.428611 54.81,163.428611 C54.9227778,163.428611 55.2241667,163.403333 55.335,163.381944 L75.5805556,159.728333 L75.5805556,169.106389 L41.0861111,169.106389 L41.0861111,137.254444 L75.5805556,137.254444 L75.5805556,140.900278 L54.2888889,144.744444 C52.6905556,145.032222 51.6230556,146.568333 51.9108333,148.1725 Z M73.9530556,60.4702778 L58.38,87.4455556 L42.805,60.4702778 L73.9530556,60.4702778 Z"/>
    </g>
  </g>
</svg>
