<svg width="300" height="300" viewBox="0 0 300 300" xmlns:svg="http://www.w3.org/2000/svg" xmlns="http://www.w3.org/2000/svg">
  <g>
    <g transform="translate(73 25)">
      <path d="M49.7159091 229.829545L64.2045455 246.875C64.7727273 247.443182 65.3409091 247.727273 66.1931818 247.727273L86.9318182 247.727273C87.7840909 247.727273 88.3522727 247.443182 88.9204545 246.875L103.409091 229.829545C103.693182 229.261364 103.977273 228.693182 103.977273 228.125L103.977273 227.272727C103.977273 225.852273 102.840909 224.715909 101.420455 224.715909L51.9886364 224.715909C50.5681818 224.715909 49.4318182 225.852273 49.4318182 227.272727L49.4318182 228.125C49.1477273 228.693182 49.4318182 229.261364 49.7159091 229.829545zM105.681818 207.102273L47.7272727 207.102273C45.4545455 207.102273 43.4659091 205.113636 43.4659091 202.840909L43.4659091 200.852273C43.4659091 198.579545 45.4545455 196.590909 47.7272727 196.590909L105.965909 196.590909C108.238636 196.590909 110.227273 198.579545 110.227273 200.852273L110.227273 202.840909C110.227273 205.113636 108.238636 207.102273 105.681818 207.102273zM102.840909 221.306818L50.5681818 221.306818C48.2954545 221.306818 46.3068182 219.318182 46.3068182 217.045455L46.3068182 214.488636C46.3068182 212.215909 48.2954545 210.227273 50.5681818 210.227273L102.556818 210.227273C104.829545 210.227273 106.818182 212.215909 106.818182 214.488636L106.818182 217.045455C106.818182 219.318182 105.113636 221.306818 102.840909 221.306818zM81.5340909 2.55681818C37.7840909-.284090909 1.42045455 34.6590909 1.42045455 77.8409091 1.42045455 84.0909091 2.27272727 90.3409091 3.69318182 96.3068182L3.69318182 96.3068182C5.68181818 103.125 9.09090909 110.227273 12.5 117.329545 22.1590909 136.363636 34.375 154.829545 34.9431818 165.625 35.2272727 172.727273 36.0795455 177.840909 37.7840909 181.534091 38.3522727 182.954545 41.1931818 186.647727 44.3181818 190.909091 45.1704545 192.045455 46.5909091 192.613636 47.7272727 192.613636L105.397727 192.613636C106.818182 192.613636 107.954545 192.045455 108.806818 190.909091 111.931818 186.931818 114.772727 182.954545 115.340909 181.534091 117.045455 177.840909 117.897727 172.443182 118.181818 165.625 118.465909 154.829545 130.965909 136.363636 140.625 117.329545 144.318182 110.227273 147.443182 103.125 149.431818 96.3068182L149.431818 96.3068182C151.136364 89.4886364 151.988636 82.6704545 151.704545 75.2840909 150.568182 36.6477273 119.886364 4.82954545 81.5340909 2.55681818zM13.6363636 74.1477273L11.6477273 73.8636364C14.7727273 48.5795455 31.8181818 26.1363636 55.1136364 16.1931818L55.9659091 18.1818182C33.5227273 27.8409091 16.7613636 49.7159091 13.6363636 74.1477273z"/>
    </g>
    <path d="M32.0833333,49.8990625 C26.6342708,49.8990625 22.2184375,54.3163542 22.2184375,59.7639583 C22.2184375,65.2130208 26.635,69.6288542 32.0833333,69.6288542 C37.5316667,69.6288542 41.9482292,65.2122917 41.9482292,59.7639583 C41.9482292,54.315625 37.5323958,49.8990625 32.0833333,49.8990625 Z M32.0833333,20.1009375 C37.5323958,20.1009375 41.9482292,15.684375 41.9482292,10.2360417 C41.9482292,4.78770833 37.5316667,0.371145833 32.0833333,0.371145833 C26.635,0.371145833 22.2184375,4.78770833 22.2184375,10.2360417 C22.2184375,15.6851042 26.6342708,20.1009375 32.0833333,20.1009375 Z M58.4842708,31.3198958 C63.2194792,28.6241667 64.8725,22.6005208 62.1760417,17.8653125 C59.4810417,13.1301042 53.458125,11.4778125 48.7221875,14.1735417 C43.9884375,16.8692708 42.3339583,22.8929167 45.0304167,27.628125 C47.726875,32.3633333 53.7505208,34.015625 58.4842708,31.3198958 Z M5.68239583,38.6801042 C0.947916667,41.3758333 -0.705104167,47.4002083 1.990625,52.1346875 C4.685625,56.8691667 10.71,58.5221875 15.44375,55.8264583 C20.1789583,53.1307292 21.8319792,47.1078125 19.1355208,42.371875 C16.44125,37.6366667 10.416875,35.984375 5.68239583,38.6801042 Z M32.0833333,22.4007292 C25.1248958,22.4007292 19.4840625,28.0408333 19.4840625,35 C19.4840625,41.9591667 25.1248958,47.5992708 32.0833333,47.5992708 C39.0425,47.5992708 44.6826042,41.9591667 44.6826042,35 C44.6826042,28.0408333 39.0425,22.4007292 32.0833333,22.4007292 Z M5.7465625,30.8845833 C10.4358333,33.6583333 16.4864583,32.1052083 19.2594792,27.4152083 C22.0332292,22.7244792 20.479375,16.6753125 15.7901042,13.9022917 C11.1001042,11.1278125 5.05020833,12.6816667 2.2771875,17.3723958 C-0.497291667,22.0616667 1.05583333,28.1108333 5.7465625,30.8845833 Z M58.4201042,39.1146875 C53.7301042,36.3409375 47.6809375,37.8947917 44.9071875,42.5847917 C42.1327083,47.2740625 43.6865625,53.3246875 48.3765625,56.0969792 C53.0658333,58.8714583 59.1164583,57.3183333 61.8894792,52.6276042 C64.6639583,47.9376042 63.1101042,41.8884375 58.4201042,39.1146875 Z" transform="translate(226.667 223)"/>
  </g>
</svg>
