<svg width="300" height="300" viewBox="0 0 300 300"  xmlns:svg="http://www.w3.org/2000/svg"  xmlns="http://www.w3.org/2000/svg">
  <g fill="none" fill-rule="evenodd">
    <circle cx="150" cy="150" r="145" stroke="#000" stroke-width="10"/>
    <g fill="#000" fill-rule="nonzero" transform="translate(85 63)">
      <path d="M10,174.5 L120,174.5 C125.5,174.5 130,170 130,164.5 L130,79.5 C130,74 125.5,69.5 120,69.5 L112.5,69.5 L112.5,48.75 C112.5,22.25 91.25,0.75 65,0.75 C38.75,0.75 17.5,22.25 17.5,48.75 L17.5,69.5 L10,69.5 C4.5,69.5 0,74 0,79.5 L0,164.5 C0,170 4.5,174.5 10,174.5 Z M22.5,48.75 C22.5,25 41.5,5.75 65,5.75 C88.5,5.75 107.5,25 107.5,48.75 L107.5,69.5 L22.5,69.5 L22.5,48.75 Z M5,79.5 C5,76.75 7.25,74.5 10,74.5 L120,74.5 C122.75,74.5 125,76.75 125,79.5 L125,164.5 C125,167.25 122.75,169.5 120,169.5 L10,169.5 C7.25,169.5 5,167.25 5,164.5 L5,79.5 Z"/>
      <rect width="5" height="20" x="62.5" y="119.5"/>
    </g>
  </g>
</svg>
