<svg width="300" height="300" viewBox="0 0 300 300" xmlns:svg="http://www.w3.org/2000/svg" xmlns="http://www.w3.org/2000/svg">
  <g>
    <path d="M32.0833333,49.8990625 C26.6342708,49.8990625 22.2184375,54.3163542 22.2184375,59.7639583 C22.2184375,65.2130208 26.635,69.6288542 32.0833333,69.6288542 C37.5316667,69.6288542 41.9482292,65.2122917 41.9482292,59.7639583 C41.9482292,54.315625 37.5323958,49.8990625 32.0833333,49.8990625 Z M32.0833333,20.1009375 C37.5323958,20.1009375 41.9482292,15.684375 41.9482292,10.2360417 C41.9482292,4.78770833 37.5316667,0.371145833 32.0833333,0.371145833 C26.635,0.371145833 22.2184375,4.78770833 22.2184375,10.2360417 C22.2184375,15.6851042 26.6342708,20.1009375 32.0833333,20.1009375 Z M58.4842708,31.3198958 C63.2194792,28.6241667 64.8725,22.6005208 62.1760417,17.8653125 C59.4810417,13.1301042 53.458125,11.4778125 48.7221875,14.1735417 C43.9884375,16.8692708 42.3339583,22.8929167 45.0304167,27.628125 C47.726875,32.3633333 53.7505208,34.015625 58.4842708,31.3198958 Z M5.68239583,38.6801042 C0.947916667,41.3758333 -0.705104167,47.4002083 1.990625,52.1346875 C4.685625,56.8691667 10.71,58.5221875 15.44375,55.8264583 C20.1789583,53.1307292 21.8319792,47.1078125 19.1355208,42.371875 C16.44125,37.6366667 10.416875,35.984375 5.68239583,38.6801042 Z M32.0833333,22.4007292 C25.1248958,22.4007292 19.4840625,28.0408333 19.4840625,35 C19.4840625,41.9591667 25.1248958,47.5992708 32.0833333,47.5992708 C39.0425,47.5992708 44.6826042,41.9591667 44.6826042,35 C44.6826042,28.0408333 39.0425,22.4007292 32.0833333,22.4007292 Z M5.7465625,30.8845833 C10.4358333,33.6583333 16.4864583,32.1052083 19.2594792,27.4152083 C22.0332292,22.7244792 20.479375,16.6753125 15.7901042,13.9022917 C11.1001042,11.1278125 5.05020833,12.6816667 2.2771875,17.3723958 C-0.497291667,22.0616667 1.05583333,28.1108333 5.7465625,30.8845833 Z M58.4201042,39.1146875 C53.7301042,36.3409375 47.6809375,37.8947917 44.9071875,42.5847917 C42.1327083,47.2740625 43.6865625,53.3246875 48.3765625,56.0969792 C53.0658333,58.8714583 59.1164583,57.3183333 61.8894792,52.6276042 C64.6639583,47.9376042 63.1101042,41.8884375 58.4201042,39.1146875 Z" transform="translate(223 223)"/>
    <path d="M100,200 C45,200 0,155 0,100 C0,45 45,0 100,0 C155,0 200,45 200,100 C200,155 155,200 100,200 Z M137.5,112.5 L137.5,87.5 L62.5,87.5 L62.5,112.5 C62.5,133.125 79.375,150 100,150 C120.625,150 137.5,133.125 137.5,112.5 Z M100,12.5 C51.875,12.5 12.5,51.875 12.5,100 C12.5,146.25 48.125,183.75 93.75,186.875 L93.75,161.875 C69.375,158.75 50,137.5 50,112.5 L50,75 L68.75,75 L68.75,37.5 L81.25,37.5 L81.25,75 L118.75,75 L118.75,37.5 L131.25,37.5 L131.25,75 L150,75 L150,112.5 C150,138.125 130.625,158.75 106.25,161.875 L106.25,186.875 C151.875,183.75 187.5,145.625 187.5,100 C187.5,51.875 148.125,12.5 100,12.5 Z" transform="translate(50 50)"/>
  </g>
</svg>
