<svg width="300" height="300" viewBox="0 0 300 300"  xmlns:svg="http://www.w3.org/2000/svg"  xmlns="http://www.w3.org/2000/svg">
  <g fill="none" fill-rule="evenodd">
    <circle cx="150" cy="150" r="145" stroke="#000" stroke-width="10"/>
    <g fill="#000" fill-rule="nonzero" transform="translate(84 63)">
      <path d="M120.3125,0 L10.9375,0 C5.59027778,0 1.21527778,4.375 1.21527778,9.72222222 L1.21527778,165.277778 C1.21527778,170.625 5.59027778,175 10.9375,175 L120.3125,175 C125.659722,175 130.034722,170.625 130.034722,165.277778 L130.034722,9.72222222 C130.034722,4.375 125.659722,0 120.3125,0 Z M125.173611,165.277778 C125.173611,167.951389 122.986111,170.138889 120.3125,170.138889 L10.9375,170.138889 C8.26388889,170.138889 6.07638889,167.951389 6.07638889,165.277778 L6.07638889,9.72222222 C6.07638889,7.04861111 8.26388889,4.86111111 10.9375,4.86111111 L120.3125,4.86111111 C122.986111,4.86111111 125.173611,7.04861111 125.173611,9.72222222 L125.173611,165.277778 Z"/>
      <path d="M64.4097222 73.4027778C40.3472222 73.4027778 20.9027778 92.8472222 20.9027778 116.666667 20.9027778 140.486111 40.3472222 159.930556 64.4097222 159.930556 88.4722222 159.930556 107.916667 140.486111 107.916667 116.666667 107.916667 92.8472222 88.4722222 73.4027778 64.4097222 73.4027778zM64.4097222 155.069444C43.0208333 155.069444 25.7638889 137.8125 25.7638889 116.666667 25.7638889 95.5208333 43.0208333 78.2638889 64.4097222 78.2638889 85.7986111 78.2638889 103.055556 95.5208333 103.055556 116.666667 103.055556 137.8125 85.7986111 155.069444 64.4097222 155.069444zM64.4097222 61.9791667C77.2916667 61.9791667 87.7430556 51.5277778 87.7430556 38.8888889 87.7430556 26.25 77.2916667 15.7986111 64.4097222 15.7986111 51.5277778 15.7986111 41.0763889 26.25 41.0763889 38.8888889 41.0763889 51.5277778 51.5277778 61.9791667 64.4097222 61.9791667zM64.4097222 20.6597222C74.6180556 20.6597222 82.8819444 28.9236111 82.8819444 38.8888889 82.8819444 48.8541667 74.6180556 57.1180556 64.4097222 57.1180556 54.2013889 57.1180556 45.9375 48.8541667 45.9375 38.8888889 45.9375 28.9236111 54.2013889 20.6597222 64.4097222 20.6597222z"/>
      <path d="M64.4097222,100.381944 C54.6875,100.381944 46.9097222,108.159722 46.9097222,117.881944 C46.9097222,127.604167 54.6875,135.381944 64.4097222,135.381944 C74.1319444,135.381944 81.9097222,127.604167 81.9097222,117.881944 C81.9097222,108.402778 74.1319444,100.381944 64.4097222,100.381944 Z M64.4097222,130.763889 C57.3611111,130.763889 51.7708333,125.173611 51.7708333,118.125 C51.7708333,111.076389 57.3611111,105.486111 64.4097222,105.486111 C71.4583333,105.486111 77.0486111,111.076389 77.0486111,118.125 C77.0486111,125.173611 71.4583333,130.763889 64.4097222,130.763889 Z"/>
    </g>
  </g>
</svg>
