<svg width="300" height="300" viewBox="0 0 300 300"  xmlns:svg="http://www.w3.org/2000/svg"  xmlns="http://www.w3.org/2000/svg">
  <g fill="none" fill-rule="evenodd">
    <circle cx="150" cy="150" r="145" stroke="#000" stroke-width="10"/>
    <path fill="#000" fill-rule="nonzero" d="M165.355769,26.1596154 C166.819231,26.1596154 167.994231,24.9730769 167.994231,23.5211538 C167.994231,22.0557692 166.821154,20.8826923 165.355769,20.8826923 L155.817308,20.8826923 L155.817308,5.27692308 L165.355769,5.27692308 C166.819231,5.27692308 167.994231,4.09038462 167.994231,2.63846154 C167.994231,1.18653846 166.821154,0 165.355769,0 L3.875,0 C2.40961538,0 1.23653846,1.18653846 1.23653846,2.63846154 C1.23653846,4.09038462 2.41153846,5.27692308 3.875,5.27692308 L150.542308,5.27692308 L150.542308,20.8826923 L3.875,20.8826923 C2.41153846,20.8826923 1.23653846,22.0557692 1.23653846,23.5211538 C1.23653846,24.9711538 2.41153846,26.1596154 3.875,26.1596154 L150.542308,26.1596154 L150.542308,41.7653846 L3.875,41.7653846 C2.41153846,41.7653846 1.23653846,42.9403846 1.23653846,44.4038462 C1.23653846,45.8557692 2.41153846,47.0423077 3.875,47.0423077 L150.542308,47.0423077 L150.542308,62.6480769 L3.875,62.6480769 C2.41153846,62.6480769 1.23653846,63.8211538 1.23653846,65.2865385 C1.23653846,66.7384615 2.41153846,67.925 3.875,67.925 L150.542308,67.925 L150.542308,83.5307692 L3.875,83.5307692 C2.41153846,83.5307692 1.23653846,84.7038462 1.23653846,86.1692308 C1.23653846,87.6192308 2.41153846,88.8076923 3.875,88.8076923 L150.542308,88.8076923 L150.542308,104.413462 L3.875,104.413462 C2.41153846,104.413462 1.23653846,105.588462 1.23653846,107.051923 C1.23653846,108.503846 2.41153846,109.690385 3.875,109.690385 L150.542308,109.690385 L150.542308,147.590385 C146.003846,148.765385 142.653846,152.894231 142.653846,157.788462 L142.653846,170.440385 C142.653846,171.892308 143.826923,173.078846 145.292308,173.078846 L161.069231,173.078846 C162.521154,173.078846 163.707692,171.892308 163.707692,170.440385 L163.707692,157.788462 C163.707692,152.894231 160.357692,148.765385 155.819231,147.590385 L155.819231,109.690385 L165.357692,109.690385 C166.821154,109.690385 167.996154,108.503846 167.996154,107.051923 C167.996154,105.588462 166.823077,104.413462 165.357692,104.413462 L155.819231,104.413462 L155.819231,88.8076923 L165.357692,88.8076923 C166.821154,88.8076923 167.996154,87.6211538 167.996154,86.1692308 C167.996154,84.7038462 166.823077,83.5307692 165.357692,83.5307692 L155.819231,83.5307692 L155.819231,67.925 L165.357692,67.925 C166.821154,67.925 167.996154,66.7384615 167.996154,65.2865385 C167.996154,63.8211538 166.823077,62.6480769 165.357692,62.6480769 L155.819231,62.6480769 L155.819231,47.0423077 L165.357692,47.0423077 C166.821154,47.0423077 167.996154,45.8557692 167.996154,44.4038462 C167.996154,42.9403846 166.823077,41.7653846 165.357692,41.7653846 L155.819231,41.7653846 L155.819231,26.1596154 L165.355769,26.1596154 Z M158.430769,157.786538 L158.430769,167.8 L147.930769,167.8 L147.930769,157.786538 C147.930769,154.898077 150.278846,152.536538 153.180769,152.536538 C156.069231,152.536538 158.430769,154.898077 158.430769,157.786538 Z" transform="translate(65 63)"/>
  </g>
</svg>
