<svg width="86" height="96" viewBox="0 0 86 96"    xmlns:svg="http://www.w3.org/2000/svg"
   xmlns="http://www.w3.org/2000/svg">
  <path d="M44,68.433 C36.527,68.433 30.471,74.491 30.471,81.962 C30.471,89.435 36.528,95.491 44,95.491 C51.472,95.491 57.529,89.434 57.529,81.962 C57.529,74.49 51.473,68.433 44,68.433 Z M44,27.567 C51.473,27.567 57.529,21.51 57.529,14.038 C57.529,6.566 51.472,0.509 44,0.509 C36.528,0.509 30.471,6.566 30.471,14.038 C30.471,21.511 36.527,27.567 44,27.567 Z M80.207,42.953 C86.701,39.256 88.968,30.995 85.27,24.501 C81.574,18.007 73.314,15.741 66.819,19.438 C60.327,23.135 58.058,31.396 61.756,37.89 C65.454,44.384 73.715,46.65 80.207,42.953 Z M7.793,53.047 C1.3,56.744 -0.967,65.006 2.73,71.499 C6.426,77.992 14.688,80.259 21.18,76.562 C27.674,72.865 29.941,64.605 26.243,58.11 C22.548,51.616 14.286,49.35 7.793,53.047 Z M44,30.721 C34.457,30.721 26.721,38.456 26.721,48 C26.721,57.544 34.457,65.279 44,65.279 C53.544,65.279 61.279,57.544 61.279,48 C61.279,38.456 53.544,30.721 44,30.721 Z M7.881,42.356 C14.312,46.16 22.61,44.03 26.413,37.598 C30.217,31.165 28.086,22.869 21.655,19.066 C15.223,15.261 6.926,17.392 3.123,23.825 C-0.682,30.256 1.448,38.552 7.881,42.356 Z M80.119,53.643 C73.687,49.839 65.391,51.97 61.587,58.402 C57.782,64.833 59.913,73.131 66.345,76.933 C72.776,80.738 81.074,78.608 84.877,72.175 C88.682,65.743 86.551,57.447 80.119,53.643 Z" transform="translate(-1)"/>
</svg>
